<svg width="24" height="24" viewBox="0 0 24 24" fill="none" stroke="white" stroke-width="2" stroke-linecap="round" stroke-linejoin="round">
  <circle cx="12" cy="12" r="3"/>
  <path d="M19.4 15A1.65 1.65 0 0 0 20 13.6V10.4A1.65 1.65 0 0 0 19.4 9L17.5 7.5L18 5.5L16.5 4L14.5 4.5L13 2.6A1.65 1.65 0 0 0 11.6 2H10.4A1.65 1.65 0 0 0 9 2.6L7.5 4.5L5.5 4L4 5.5L4.5 7.5L2.6 9A1.65 1.65 0 0 0 2 10.4V13.6A1.65 1.65 0 0 0 2.6 15L4.5 16.5L4 18.5L5.5 20L7.5 19.5L9 21.4A1.65 1.65 0 0 0 10.4 22H11.6A1.65 1.65 0 0 0 13 21.4L14.5 19.5L16.5 20L18 18.5L17.5 16.5L19.4 15Z"/>
</svg>
